<svg xmlns="http://www.w3.org/2000/svg" fill="none" viewBox="0 0 30 23"><path fill="#C7C7D5" fill-rule="evenodd" d="M29.0526 18.3558V23c-7.1363 0-12.8961-5.8974-12.8961-13.15865v-6.5609C16.1565 1.47436 17.6055 0 19.3805 0h6.4481c1.775 0 3.224 1.47436 3.224 3.28045v6.5609c0 1.80605-1.449 3.28045-3.224 3.28045h-4.3108c1.3765 2.9119 4.2021 5.0128 7.5348 5.234ZM0 9.84135v-6.5609C0 1.47436 1.44901 0 3.22405 0h6.44809c1.77506 0 3.22406 1.47436 3.22406 3.28045v6.5609c0 1.80605-1.449 3.28045-3.22406 3.28045H5.39756c1.37656 2.9119 4.1659 4.976 7.49864 5.234V23C5.79604 23 0 17.1026 0 9.84135Z" clip-rule="evenodd"/></svg>