<svg xmlns="http://www.w3.org/2000/svg" fill="none" viewBox="0 0 99 60"><g clip-path="url(#a)"><path fill="#434F8B" d="M95.18 57.8899c1.12 0 2.12-.04 3-.1l.5-.06.03 1.77c-1.38.34-2.63.5-3.74.5-1.36 0-2.34-.36-2.96-1.07-.6-.72-.91-1.88-.91-3.5 0-3.21 1.32-4.82 3.97-4.82 2.62 0 3.93 1.35 3.93 4.05l-.18 1.67h-5.3c.02.55.17.95.45 1.2.28.24.68.36 1.21.36Zm1.43-3.39c0-.71-.11-1.21-.34-1.5-.22-.28-.62-.42-1.2-.42-.56 0-.96.15-1.2.44-.23.3-.35.79-.36 1.48h3.1Zm-9.39-3.89c.63 0 1.43.1 2.4.29l.49.1-.08 1.9c-.94-.09-1.65-.14-2.1-.14-.83 0-1.38.18-1.65.53-.27.35-.4 1.02-.4 2s.13 1.65.4 2.02c.27.36.83.54 1.66.54l2.1-.14.07 1.92c-.9671.2102-1.951.3341-2.94.37-1.33 0-2.29-.37-2.87-1.12-.58-.74-.87-1.94-.87-3.59s.3-2.84.9-3.58c.6-.73 1.56-1.1 2.9-1.1h-.01Zm-10.63 9.18h-2.42v-8.96h2.4v.5a4.54092 4.54092 0 0 1 2.25-.72c1.2 0 2.03.36 2.49 1.06.46.7.69 1.8.69 3.26v4.86h-2.42v-4.79c0-.76-.09-1.33-.27-1.69-.18-.36-.54-.55-1.08-.55-.5 0-.97.09-1.43.25l-.21.08v6.7Zm-4.45-2.44c.02.29.07.49.14.6.07.11.22.2.45.24l-.07 1.81c-.61 0-1.1-.04-1.47-.12a3.26948 3.26948 0 0 1-1.1-.5c-.87.41-1.75.62-2.65.62-1.86 0-2.8-.98-2.8-2.94 0-.95.26-1.63.78-2.03.52-.4 1.3-.64 2.38-.7l1.92-.15v-.56c0-.37-.08-.62-.25-.76-.17-.14-.44-.2-.8-.2l-3.4.14-.07-1.67c1.29-.34 2.51-.52 3.67-.52 1.16 0 2 .24 2.5.72.51.48.77 1.24.77 2.3v3.72Zm-4.06-1.36c-.67.06-1 .42-1 1.07 0 .66.29.99.88.99.45 0 .95-.07 1.49-.22l.26-.07v-1.91l-1.63.14Zm-15.26 3.8h-2.41v-8.96h2.39v.5a4.45032 4.45032 0 0 1 2.12-.72c.98 0 1.73.28 2.25.84a6.77001 6.77001 0 0 1 3.03-.84c1.19 0 2.01.35 2.48 1.03.46.69.69 1.79.69 3.3v4.85h-2.41v-4.79c0-.76-.09-1.33-.26-1.69-.16-.36-.5-.55-1-.55-.39 0-.86.09-1.4.25l-.28.1c.05.89.07 1.57.07 2.04v4.64h-2.41v-4.6c0-.9-.08-1.52-.23-1.88-.16-.36-.5-.55-1.03-.55-.47 0-.93.09-1.39.25l-.21.08v6.7Zm-8.84 0v-8.96h2.39v.95c1-.6 1.96-.99 2.87-1.17v2.42c-.97.2-1.8.41-2.5.63l-.36.12v6l-2.4.01Zm-8.83-7.95c.64-.82 1.7-1.23 3.2-1.23 1.48 0 2.54.41 3.18 1.23.63.82.95 1.97.95 3.45 0 3.14-1.38 4.71-4.14 4.71s-4.14-1.57-4.14-4.71c0-1.48.32-2.63.95-3.45Zm1.87 5.47c.24.43.69.64 1.32.64.64 0 1.08-.21 1.33-.64.24-.43.36-1.1.36-2.02 0-.92-.12-1.6-.36-2-.25-.43-.7-.63-1.33-.63-.63 0-1.08.2-1.32.62a4.10093 4.10093 0 0 0-.37 2c0 .92.12 1.6.37 2.03Zm-5.6-4.44v6.92h-2.4v-9.36c0-1.29.19-2.18.57-2.67.39-.49 1.07-.73 2.05-.73.44 0 1 .06 1.68.18l.38.05-.04 1.95-1.33-.03c-.36 0-.6.1-.72.29-.12.19-.18.52-.18.98v.38h2.18v2.04h-2.19Zm-4.02-1.09h-3.01v4.43c0 1.16.08 1.92.25 2.28.17.36.56.54 1.19.54l1.66-.13.07.92c-.8.11-1.4.18-1.82.18-.91 0-1.55-.23-1.9-.68-.35-.45-.53-1.3-.53-2.57v-8.75h1.08v2.82h3l.01.96Zm-8.68 0v8h-1.08v-9.87c0-1.26.17-2.12.52-2.57.35-.45.96-.67 1.85-.67l1.75.09v.91l-1.59-.03c-.56 0-.94.15-1.15.46-.2.31-.3.92-.3 1.83v.9h2.72v.95h-2.72Zm-10.50998 3.51c0-1.68.28999-2.88.85999-3.58.57-.7 1.53999-1.06 2.90999-1.06 1.38 0 2.35.35 2.92 1.06.57.7.85 1.9.85 3.58 0 1.68-.26 2.89-.78 3.6-.52.72-1.51 1.08-2.98 1.08-1.46 0-2.46-.36-2.99-1.08-.53-.71-.78998-1.92-.78998-3.6Zm1.12-.03c0 1.42.16 2.4.5 2.94.31998.55 1.03998.82 2.14998.82 1.11 0 1.84-.28 2.17-.83.34-.55.5-1.52.5-2.93 0-1.4-.18-2.36-.56-2.88-.38-.52-1.08-.78-2.1-.78s-1.72.26-2.09999.77c-.37.51-.55999 1.48-.55999 2.9v-.01Zm-6.10004-3.63c-1.42 0-2.13.51-2.13 1.53 0 .46.15003.8.47003.98.3.2 1.00998.38 2.10998.57 1.1.18 1.87001.44 2.32001.76.45.32.67999.94.67999 1.85 0 .92-.3 1.59-.88 2.01-.6.43-1.44998.64-2.59998.64-.65 0-1.49999-.09-2.54999-.25l-.52002-.08.07001-.95c1.34.2 2.36998.31 3.09998.31.72 0 1.27999-.13 1.67999-.38.4-.25.60004-.67.60004-1.27s-.16-1-.5-1.2a6.96033 6.96033 0 0 0-2.12-.54 5.74927 5.74927 0 0 1-2.30005-.71c-.44-.31-.65997-.9-.65997-1.76s.29998-1.49.91998-1.88a4.10079 4.10079 0 0 1 2.27002-.6c.72 0 1.62001.08 2.70001.24l.47999.07-.02997.95c-1.29-.19-2.32006-.29-3.12006-.29"/><path fill="#EB660B" d="M61.2701 5.57007h-10.19v3.34H57.92c1.85 0 3.3501-1.5 3.3501-3.34ZM65.2001 0h-10.77c-.8868 0-1.7374.35157-2.3653.97765A3.3496 3.3496 0 0 0 51.0801 3.34H61.85c1.85 0 3.3501-1.5 3.3501-3.34Z"/><path fill="#434F8B" d="m56.4399 16.0401-11.6699-1.49a1.75986 1.75986 0 0 1-.9698-.4253 1.75954 1.75954 0 0 1-.5503-.9047c-.24-1.1.6-2.08 1.67-2.08H51.08V8.90008h-2.5201c-.4429 0-.8676-.17595-1.1808-.48914a1.66988 1.66988 0 0 1-.4891-1.18086c0-.44291.1759-.86768.4891-1.18087a1.66988 1.66988 0 0 1 1.1808-.48914H51.08V3.33008H33.45v1.43c0 2.34 1.74 4.3 4.07 4.6h-4.07v1.44002c0 2.33 1.74 4.3 4.07 4.6h-4.07v1.44c0 2.33 1.7399 4.3 4.0599 4.6l17.9401 2.33c.95.12 1.6399 1 1.4799 1.98-.14.85-.94 1.43-1.8 1.43H41.27a7.7988 7.7988 0 0 0-2.9911.588 7.79854 7.79854 0 0 0-2.5373 1.6895 7.79933 7.79933 0 0 0-2.2916 5.5225h21.4799c5 0 9.37-3.71 9.8-8.68.2108-2.4509-.5343-4.8883-2.0794-6.8024-1.5451-1.9141-3.7704-3.1566-6.2106-3.4676"/></g><defs><clipPath id="a"><path fill="#fff" d="M0 0h99v60H0z"/></clipPath></defs></svg>